<svg width="3182.406522761733" height="912.8343763766563" viewBox="0 0 3182.406522761733 912.8343763766563"
    xmlns="http://www.w3.org/2000/svg" version="1.1">
    <path d="M 2782.9844659341998 11.3003943396086 L 3039.2522720443803 481.77307437954227" stroke="#aa3333"
        stroke-width="20.285208363925697" fill="none" />
    <path
        d="M 2760.5155420103574 186.3450445260366 L 2250.0660812512424 766.9398464155652 L 2793.0735941576518 715.3153647924862"
        stroke="#33aa00" stroke-width="26.483864090656596" fill="none" />
    <path
        d="M 1358.1618702232563 171.44784455916988 L 1303.2927640285975 163.3222430082855 L 1191.9275866176524 180.75942924126508 L 1132.3538363896741 218.0376499838068"
        stroke="#f08012" stroke-width="30.427812545888543" fill="none" />
    <path
        d="M 1040.4245913771838 420.76285024031216 L 1038.5729939962512 512.8481105849853 L 1053.2130177693793 591.1278961862017 L 1084.16436528599 661.0692233702097"
        stroke="#f08012" stroke-width="30.427812545888543" fill="none" />
    <path
        d="M 656.3633482990527 248.94300887048388 L 728.3484016190357 242.34445590084403 L 785.0455965917048 262.83773830786413 L 842.2475569947978 299.085768086213"
        stroke="#33aa00" stroke-width="28.10235464140523" fill="none" />
    <path d="M 2793.0735941576518 715.3153647924862 L 2782.76412817242 606.8761648619779" stroke="#33aa00"
        stroke-width="26.483864090656596" fill="none" />
    <path
        d="M 2222.1049920415394 354.70976571727107 L 2211.064574258241 238.5821143884401 L 2760.5155420103574 186.3450445260366"
        stroke="#33aa00" stroke-width="26.483864090656596" fill="none" />
    <path
        d="M 503.7039967798423 321.8497354566807 L 590.8578740584812 268.6860207272998 L 656.3633482990527 248.94300887048388"
        stroke="#33aa00" stroke-width="28.10235464140523" fill="none" />
    <path
        d="M 1495.8616951727158 267.5348137855297 L 1448.2471267180247 230.55570698265166 L 1404.6773799350694 196.50980480514266 L 1358.1618702232563 171.44784455916988"
        stroke="#f08012" stroke-width="30.427812545888543" fill="none" />
    <path
        d="M 467.6227451344798 138.01085730205142 L 564.7856165352565 179.78732364098812 L 503.7039967798423 321.8497354566807"
        stroke="#33aa00" stroke-width="28.10235464140523" fill="none" />
    <path
        d="M 1669.61405416643 576.5519271326706 L 1694.0336060583131 607.3781360419413 L 1732.8485193841077 635.5042851987606 L 1793.6515100692952 654.4058839869808 L 1857.2309181730618 657.8602982916815"
        stroke="#0078D6" stroke-width="19.65969256753791" fill="none" />
    <path
        d="M 1500.4347860443163 172.84312484461577 L 1491.7283245772305 353.12153263597116 L 1495.8616951727158 267.5348137855297"
        stroke="#f08012" stroke-width="30.427812545888543" fill="none" />
    <path
        d="M 1857.2309181730618 657.8602982916815 L 1929.323643767418 649.6682608093832 L 1984.9519013930285 619.9690066705771 L 2038.4496515070457 584.2636871497331"
        stroke="#0078D6" stroke-width="19.65969256753791" fill="none" />
    <path
        d="M 1084.16436528599 661.0692233702097 L 1144.5859288309343 727.5969115938585 L 1337.4234522645988 774.2360929412848"
        stroke="#f08012" stroke-width="30.427812545888543" fill="none" />
    <path
        d="M 249.84327777575317 644.5179948141556 L 434.0329570697439 723.71279243665 L 350.0776835727609 687.6151081395708 L 567.8571509314876 181.1079706274666 L 467.6227451344798 138.01085730205142"
        stroke="#33aa00" stroke-width="28.10235464140523" fill="none" />
    <path
        d="M 2124.653075569313 705.9257264414613 L 2019.96455658861 687.1094154215862 L 2088.132910576359 307.84038586570097 L 1984.4809115855637 289.2103749549336"
        stroke="#0078D6" stroke-width="19.65969256753791" fill="none" />
    <path
        d="M 1588.558327738515 220.5665974538775 L 1700.036052653115 240.6031741884078 L 1652.5447020721538 504.83132982755615 L 1649.6630455070488 538.7236282508948 L 1669.61405416643 576.5519271326706"
        stroke="#0078D6" stroke-width="19.65969256753791" fill="none" />
    <path
        d="M 842.2475569947978 299.085768086213 L 887.3665417733619 352.15032753028356 L 904.1892892909725 420.23954850263357"
        stroke="#33aa00" stroke-width="28.10235464140523" fill="none" />
    <path
        d="M 1132.3538363896741 218.0376499838068 L 1084.035110624672 282.3254247834008 L 1051.750648537088 349.2128080902468 L 1040.4245913771838 420.76285024031216"
        stroke="#f08012" stroke-width="30.427812545888543" fill="none" />
    <path d="M 2385.5191632192987 81.58611160721324 L 2476.939520076365 328.69746703709984" stroke="#aa3333"
        stroke-width="20.285208363925697" fill="none" />
    <path
        d="M 1337.4234522645988 774.2360929412848 L 1401.0419031906076 757.2308627156553 L 1445.0297471569886 730.6076856325858 L 1477.4810247099742 700.1419212419096"
        stroke="#f08012" stroke-width="30.427812545888543" fill="none" />
    <path d="M 985.830444759212 181.48000905486737 L 1280.1464924297388 539.2930813035662" stroke="#aa3333"
        stroke-width="20.285208363925697" fill="none" />
    <path d="M 1926.913812030218 189.83089405187715 L 2032.956660818908 514.8781537813287" stroke="#aa3333"
        stroke-width="20.285208363925697" fill="none" />
    <path d="M 645.8574052785277 806.632224483043 L 843.4594514360608 891.5938472798268" stroke="#33aa00"
        stroke-width="28.10235464140523" fill="none" />
    <path
        d="M 2038.4496515070457 584.2636871497331 L 2019.96455658861 687.1094154215862 L 2124.653075569313 705.9257264414613"
        stroke="#0078D6" stroke-width="19.65969256753791" fill="none" />
    <path d="M 1777.6403380281636 488.2983368050364 L 1811.496638755005 882.8154087292337" stroke="#aa3333"
        stroke-width="20.285208363925697" fill="none" />
    <path
        d="M 904.1892892909725 420.23954850263357 L 898.23506852101 470.76665122181015 L 874.7421378458507 525.4060403816919 L 736.9795923667166 845.8114184152387 L 645.8574052785277 806.632224483043"
        stroke="#33aa00" stroke-width="28.10235464140523" fill="none" />
</svg>