<svg width="3657.9291903171024" height="1047.6540471967983" viewBox="0 0 3657.9291903171024 1047.6540471967983"
    xmlns="http://www.w3.org/2000/svg" version="1.1">
    <path d="M 1871.9767161847208 600.1655852359181 L 2529.3411783058036 990.6403979842266" stroke="#aa33aa"
        stroke-width="23.28120104881774" fill="none" />
    <path
        d="M 2782.3391850650896 522.5225391559019 L 2786.790503640804 591.6321001146176 L 2819.3561635116544 669.1781822258633 L 2881.249147926371 725.056122215995"
        stroke="#aa3333" stroke-width="21.45677533824321" fill="none" />
    <path
        d="M 3230.065394993892 475.3835729067922 L 3178.103835234222 407.1110707631209 L 3093.2668861072007 344.71540033584665 L 3021.3656993937457 324.58568268896"
        stroke="#aa3333" stroke-width="21.45677533824321" fill="none" />
    <path
        d="M 501.51356386567636 108.1025123302224 L 693.3240745294207 174.46961678266376 L 592.3440581713926 139.5301795742874"
        stroke="#aa3333" stroke-width="27.031953643435788" fill="none" />
    <path d="M 2211.0932319181147 409.5374682866163 L 2229.4387176942214 441.8739941303464" stroke="#f08012"
        stroke-width="34.9218015732266" fill="none" />
    <path
        d="M 2444.8564401926405 632.4136302569805 L 2308.140144794709 597.76388177866 L 2236.9840828874303 581.733845834412 L 2185.2730665775266 557.1459780698012"
        stroke="#f08012" stroke-width="34.9218015732266" fill="none" />
    <path
        d="M 2578.400593372504 247.65067113947975 L 2372.3247654857205 190.49362279341995 L 2257.968948905533 213.2724423415154 L 2209.111188302436 278.19620366125844"
        stroke="#f08012" stroke-width="34.9218015732266" fill="none" />
    <path d="M 2815.5886992873384 200.06540780578393 L 3201.8887485141217 667.5469226745607" stroke="#aa33aa"
        stroke-width="23.28120104881774" fill="none" />
    <path
        d="M 1412.7815129179733 425.98679066292976 L 1311.801496559945 391.04735345455344 L 1497.274995993058 455.22182995973446"
        stroke="#aa3333" stroke-width="27.031953643435788" fill="none" />
    <path
        d="M 2181.3773376032686 848.1665369857916 L 2279.3341509110596 881.8753469385333 L 2384.3464727879477 907.7317033636136 L 2475.443400309441 909.0198373406478 L 2539.617839459678 888.6716866360373"
        stroke="#f08012" stroke-width="34.9218015732266" fill="none" />
    <path
        d="M 2185.2730665775266 557.1459780698012 L 2133.8790463811843 522.1827100159604 L 2132.9471113364207 483.7767006305893 L 2163.891355998516 455.30177567297847"
        stroke="#f08012" stroke-width="34.9218015732266" fill="none" />
    <path
        d="M 3021.3656993937457 324.58568268896 L 2953.802873888029 323.5789334037203 L 2889.8443116219282 344.31727147840974 L 2836.779994026113 388.841626618893"
        stroke="#aa3333" stroke-width="21.45677533824321" fill="none" />
    <path
        d="M 2539.617839459678 888.6716866360373 L 2583.6729527324032 852.9338892152742 L 2584.699499553316 726.1328450559262 L 2525.6047066681112 675.4095787112636 L 2444.8564401926405 632.4136302569805"
        stroke="#f08012" stroke-width="34.9218015732266" fill="none" />
    <path
        d="M 2209.111188302436 278.19620366125844 L 2193.9270822128324 347.0100194521074 L 2211.0932319181147 409.5374682866163"
        stroke="#f08012" stroke-width="34.9218015732266" fill="none" />
    <path
        d="M 2044.2063830532118 734.2618110975226 L 2100.4943895962388 808.2940285765526 L 2181.3773376032686 848.1665369857916"
        stroke="#f08012" stroke-width="34.9218015732266" fill="none" />
    <path
        d="M 1874.8646463896919 319.82032170707635 L 1708.7576950663529 208.2075794793176 L 1779.5999714910095 255.80884284861196"
        stroke="#aa3333" stroke-width="27.006780712403344" fill="none" />
    <path d="M 2937.3603600496617 109.37867362706336 L 3560.0507807025397 126.24247562041324" stroke="#0078D6"
        stroke-width="23.28120104881774" fill="none" />
    <path
        d="M 2163.891355998516 455.30177567297847 L 2230.2808408591086 438.8377766662098 L 2270.5289464962248 473.97940976688415 L 2344.165271984159 511.8419999925253 L 2422.2929210181596 533.511430409438"
        stroke="#f08012" stroke-width="34.9218015732266" fill="none" />
    <path
        d="M 2632.5262778366455 289.91116801472356 L 2691.3294547475607 271.343035909501 L 2797.7642229967782 300.86370923109234 L 2764.9214195661707 419.2761903324187 L 2797.7642229967782 300.86370923109234"
        stroke="#f08012" stroke-width="34.9218015732266" fill="none" />
    <path
        d="M 592.3440581713926 139.5301795742874 L 626.7976195557269 723.5379153968225 L 998.3249402638733 280.00097814673927 L 1019.383193355816 859.3738906661224 L 1412.7815129179733 425.98679066292976"
        stroke="#aa3333" stroke-width="27.031953643435788" fill="none" />
    <path
        d="M 2797.7642229967782 300.86370923109234 L 2698.123163359213 273.2273342066239 L 2632.5262778366455 289.91116801472356 L 2578.400593372504 247.65067113947975"
        stroke="#f08012" stroke-width="34.9218015732266" fill="none" />
    <path
        d="M 2637.433572194768 465.66095361424163 L 2662.725628787666 387.6614486952522 L 2654.686188822299 333.1150246615113 L 2632.5262778366455 289.91116801472356"
        stroke="#f08012" stroke-width="34.9218015732266" fill="none" />
    <path
        d="M 3254.0459286192317 389.7276856295793 L 3214.6493376633166 530.4480718707148 L 3230.065394993892 475.3835729067922"
        stroke="#aa3333" stroke-width="21.45677533824321" fill="none" />
    <path
        d="M 1475.7559273701968 702.3903881485376 L 2066.260038686136 448.4252019590821 L 2128.615098619819 490.3236244846224 L 1967.5311937911376 382.0860329603099"
        stroke="#aa3333" stroke-width="27.006780712403344" fill="none" />
    <path
        d="M 2422.2929210181596 533.511430409438 L 2510.2831558375483 537.2076824182345 L 2597.365090317404 513.4037742125828 L 2637.433572194768 465.66095361424163"
        stroke="#f08012" stroke-width="34.9218015732266" fill="none" />
    <path
        d="M 1402.0557106985796 652.8687804134893 L 1571.0206022688792 766.401867007002 L 1475.7559273701968 702.3903881485376"
        stroke="#aa3333" stroke-width="27.006780712403344" fill="none" />
    <path d="M 833.6031588658974 334.8112330877143 L 1365.5351200593113 936.129052952386" stroke="#33aa00"
        stroke-width="23.28120104881774" fill="none" />
    <path
        d="M 1779.5999714910095 255.80884284861196 L 1765.01412206256 896.7525148642385 L 1833.4314794897955 942.7243951353175 L 1669.7494471638774 832.7410360057742"
        stroke="#aa3333" stroke-width="27.006780712403344" fill="none" />
    <path
        d="M 2836.779994026113 388.841626618893 L 2803.1386274952315 448.22916753791105 L 2782.3391850650896 522.5225391559019"
        stroke="#aa3333" stroke-width="21.45677533824321" fill="none" />
    <path
        d="M 2222.264380895517 577.6511995239791 L 2142.873183474204 586.4763138442588 L 2080.5602146547158 617.2591180832135 L 2054.8708039504727 668.5541361102944 L 2044.2063830532118 734.2618110975226"
        stroke="#f08012" stroke-width="34.9218015732266" fill="none" />
    <path d="M 3088.3797767931783 762.2148867713049 L 3153.072437027402 738.8544296983335" stroke="#aa3333"
        stroke-width="21.45677533824321" fill="none" />
    <path
        d="M 2881.249147926371 725.056122215995 L 2933.633432228404 745.6598603475522 L 2993.55108782295 762.4346250532911 L 3088.3797767931783 762.2148867713049"
        stroke="#aa3333" stroke-width="21.45677533824321" fill="none" />
    <path d="M 3020.31346617647 43.515470646029826 L 3043.5783321093077 86.24720421212484" stroke="#0078D6"
        stroke-width="23.28120104881774" fill="none" />
</svg>